<svg xmlns="http://www.w3.org/2000/svg" x="0px" y="0px" viewBox="0 0 255 255">
	<path d="M163.2 92.9l14.9-1 1.1 15.5-14.9 1 2.4 34.6-16.1 1.1s-6.4.2-9.2-6.3c-1.3-3.1-1.6-11.9-1.6-11.9l-1.1-15.6-10.2.7-1.1-15.5 10.2-.7-.8-11.9 25.6-1.8c0-.1.8 11.8.8 11.8z"/>
	<path d="M66.6 118l2.2 31.8-25.4 1.8-1-14.3-11.6 4.7s-3.7 1.5-3.4 5.4c.2 3 3.6 4.9 3.6 4.9l-25.2 1.8S.5 152.2.1 147c-.2-2.8-.4-6.3 3.2-10.3 5.4-6.1 17.3-8.2 17.3-8.2s7.4-1.6 10.1-2.2c7.1-1.7 10.9-2 10.6-6-.3-3.3-4.7-4.1-8.1-3.8-9 .8-7.6 6.9-7.6 6.9l-24.4 1.7s-.9-9 8.6-16.8c6.1-5 20.7-9.6 38.4-7.3 19.7 2.6 17.9 14 18.4 17"/>
	<path d="M250.3 102.1c5.9 9.2 4.5 21.7 4.5 21.7l-44.3 3.1.9 12.9-18.5 1.3s-8.2-7.6-9.1-19.9c-1.1-15.4 7.2-30.8 32.1-33.3 14.6-1.5 27.2 2.9 34.4 14.2m-21 10.4s.2-9.6-10.8-8.8c-11.5.8-9.3 10.2-9.3 10.2l20.1-1.4z"/>
	<path d="M121.7 95.7l1.1 15.6-7.4.5s-4.6.1-7.3 3-2.5 7-2.5 7l1.8 25.3-25.8 1.8L78 98.8l23.7-1.6.4 5.8s3.9-7.5 12.7-7.9c4.8-.4 6.9.6 6.9.6z"/>
</svg>
