<svg xmlns="http://www.w3.org/2000/svg" x="0px" y="0px" viewBox="0 0 255 255">
	<path d="M163.2,92.9l14.9-1l1.1,15.5l-14.9,1l2.4,34.6l-16.1,1.1c0,0-6.4,0.2-9.2-6.3c-1.3-3.1-1.6-11.9-1.6-11.9l-1.1-15.6l-10.2,0.7l-1.1-15.5l10.2-0.7l-0.8-11.9l25.6-1.8C162.4,81,163.2,92.9,163.2,92.9z"/>
	<path d="M66.6,118l2.2,31.8l-25.4,1.8l-1-14.3L30.8,142c0,0-3.7,1.5-3.4,5.4c0.2,3,3.6,4.9,3.6,4.9l-25.2,1.8c0,0-5.3-1.9-5.7-7.1c-0.2-2.8-0.4-6.3,3.2-10.3c5.4-6.1,17.3-8.2,17.3-8.2s7.4-1.6,10.1-2.2c7.1-1.7,10.9-2,10.6-6c-0.3-3.3-4.7-4.1-8.1-3.8c-9,0.8-7.6,6.9-7.6,6.9l-24.4,1.7c0,0-0.9-9,8.6-16.8c6.1-5,20.7-9.6,38.4-7.3C67.9,103.6,66.1,115,66.6,118"/>
	<path d="M250.3,102.1c5.9,9.2,4.5,21.7,4.5,21.7l-44.3,3.1l0.9,12.9l-18.5,1.3c0,0-8.2-7.6-9.1-19.9c-1.1-15.4,7.2-30.8,32.1-33.3C230.5,86.4,243.1,90.8,250.3,102.1 M229.3,112.5c0,0,0.2-9.6-10.8-8.8c-11.5,0.8-9.3,10.2-9.3,10.2L229.3,112.5L229.3,112.5z"/>
	<path d="M121.7,95.7l1.1,15.6l-7.4,0.5c0,0-4.6,0.1-7.3,3c-2.7,2.9-2.5,7-2.5,7l1.8,25.3l-25.8,1.8L78,98.8l23.7-1.6l0.4,5.8c0,0,3.9-7.5,12.7-7.9C119.6,94.7,121.7,95.7,121.7,95.7L121.7,95.7z"/>
</svg>
