<svg xmlns="http://www.w3.org/2000/svg" x="0px" y="0px" viewBox="0 0 255 255">
	<path d="M8.2,137.9h2.4c1.6,0,3.1-1.4,3.1-4.1c0-2.6-1.5-4-3.1-4H8.2V137.9z M8.2,123.9h2.1c1.8,0,2.8-1.6,2.8-3.4c0-1.9-1-3.5-2.8-3.5H8.2V123.9z M-0.5,110.8h13.1c6.2,0,9.1,3.3,9.1,8.3c0,3.5-1.5,6.7-5.2,7.5v0.1c4.4,0.4,6.2,4.2,6.2,7.6c0,5.8-2.8,9.9-10.1,9.9H-0.5V110.8z"/>
	<path d="M37.1,139c2.7,0,3-2.4,3-11.5c0-9-0.3-11.5-3-11.5c-2.7,0-2.9,2.4-2.9,11.5C34.2,136.5,34.4,139,37.1,139 M37.1,110.1c8.9,0,11.9,4.9,11.9,17.3c0,12.5-3,17.4-11.9,17.4c-8.9,0-11.9-4.9-11.9-17.4C25.2,115,28.2,110.1,37.1,110.1"/>
	<path d="M52.3,110.8h12.4l3.5,19.8h0.1l3.5-19.8h12.4v33.4h-8.1v-24.9H76l-4.6,24.9h-6.3l-4.6-24.9h-0.1v24.9h-8.1V110.8z"/>
	<path d="M96.8,137.9h2.4c1.6,0,3.1-1.4,3.1-4.1c0-2.6-1.5-4-3.1-4h-2.4V137.9z M96.8,123.9h2.1c1.8,0,2.8-1.6,2.8-3.4c0-1.9-1-3.5-2.8-3.5h-2.1V123.9z M88.1,110.8h13.1c6.2,0,9.1,3.3,9.1,8.3c0,3.5-1.5,6.7-5.2,7.5v0.1c4.4,0.4,6.2,4.2,6.2,7.6c0,5.8-2.8,9.9-10.1,9.9H88.1V110.8z"/>
	<path d="M125.4,117.6L125.4,117.6l-2.5,14.2h4.9L125.4,117.6z M119.9,110.8h10.9l8.1,33.4h-9.3l-0.9-5.8h-6.9l-0.9,5.8h-9.3L119.9,110.8z"/>
	<path d="M150.1,124.9h1.7c2.5,0,3.6-1.6,3.6-4c0-2.7-1.1-3.9-3.7-3.9h-1.7V124.9z M141.4,110.8H155c6.6,0,9.2,3.7,9.2,8.9c0,4.4-1.7,7.3-5.7,7.9v0.1c4.2,0.4,5.5,3,5.5,7.5v2.8c0,1.7,0,4,0.4,4.6c0.2,0.4,0.4,0.7,1,1v0.5H156c-0.8-1.8-0.8-5-0.8-6.3v-2.3c0-3.8-0.8-4.8-2.9-4.8h-2.3v13.4h-8.7V110.8z"/>
	<path d="M176.6,137.9h1.7c3.4,0,3.8-1.4,3.8-10.4c0-9-0.4-10.4-3.8-10.4h-1.7V137.9z M167.9,110.8h12.6c10.1,0,10.6,8,10.6,16.7c0,8.8-0.5,16.7-10.6,16.7h-12.6V110.8z"/>
	<path d="M194.6,110.8h8.7v33.4h-8.7V110.8z"/>
	<path d="M207.2,110.8H227v7.1h-11.1v5.7h10.4v6.8h-10.4v6.6h11.5v7.1h-20.2V110.8z"/>
	<path d="M239.3,124.9h1.7c2.5,0,3.7-1.6,3.7-4c0-2.7-1.1-3.9-3.7-3.9h-1.7V124.9z M230.6,110.8h13.6c6.7,0,9.2,3.7,9.2,8.9c0,4.4-1.7,7.3-5.7,7.9v0.1c4.2,0.4,5.5,3,5.5,7.5v2.8c0,1.7,0,4,0.4,4.6c0.2,0.4,0.4,0.7,1,1v0.5h-9.2c-0.8-1.8-0.8-5-0.8-6.3v-2.3c0-3.8-0.8-4.8-2.9-4.8h-2.3v13.4h-8.7V110.8z"/>
</svg>
