<svg xmlns="http://www.w3.org/2000/svg" viewBox="0 0 255 255">
	<path d="M231.869 100.212c-3.417-25.059-53.245-42.143-79.157-21.354-4.653-3.608-19.84-9.781-32.749 1.139-3.892-12.721-57.329-39.678-80.868 11.104-9.3-8.354-44.515 9.49-27.051 34.735-33.41 28.667 7.213 78.401 66.348 46.698 14.141 19.842 44.8 19.74 58.656 9.109 18.89 23.158 50.32 8.452 54.104-8.252 21.926 15.945 45.845-3.417 46.984-19.65 15.848-1.607 30.86-45.647-6.267-53.529zm4.844 50.402c-1.139 10.908-17.652 36.921-46.129 18.225-.575 7.686-26.479 37.299-53.816 8.54-6.074 4.173-32.938 19.454-56.667-8.827-21.143 13.739-66.511 18.637-74.863-16.229-1.614-6.741-1.698-18.134 9.373-26.196-14.144-25.06 14.711-37.303 25.057-31.61 20.787-45.937 71.47-27.805 79.443-11.39 14.622-8.821 27.245-5.127 33.603 0 41.57-27.618 71.757 5.983 76.027 19.652 32.555 5.694 25.245 44.413 7.972 47.835z"/>
	<path d="M54.044 94.414c-7.973-.565-15.52 2.852-23.493 2.277-.52 7.265 5.649 9.542 9.112 8.546-6.594 17.362-10.917 35.166-12.958 52.527h.003c4.556 2.565 9.398 3.417 14.093 2.565 15.998-1.521 34.407-18.273 33.887-39.149.666-9.489-1.803-27.526-20.644-26.766zm10.274 29.526c-.62 4.604-2.499 23.155-27.714 26.938 3.273-16.422 8.827-30.827 12.386-46.82 15.162-2.223 15.328 12.106 15.328 19.882zm8.248 23.028c1.542 2.086 5.148 1.611 7.831 1.143 1.021-9.021 2.539-18.105 5.406-27.055 3.159-3.515 3.432-3.716 9.686-2.523 2.539-3.646 2.907-10.383-2.42-10.712-1.887-.191-3.739.578-5.553 4.557.119-1.637-.583-4.275-2.849-4.704l-3.985-.424c-2.707 13.239-6.409 26.479-8.116 39.718m27.169-15.848c18.534 1.539 19.698-24.542 10.537-24.634-8.422.262-11.01 7.146-11.819 8.755-4.295 7.713-6.666 14.642-7.116 21.854.354 6.337 2.775 8.744 8.115 8.969 11.791-.474 9.628-6.928 10.388-9.111-3.391.499-9.845 6.268-10.388-2.132l.283-3.701zm2.065-5.413c.902-3.299 2.017-8.602 6.548-11.188 1.307 1.023 1.474 9.313-6.548 11.188z"/>
	<path d="M124.38 149.778l.282 2.846c2.326 1.944 5.078 1.474 7.831 1.139.239-13.333 5.458-24.248 8.83-35.302-22.829-20.124-42.524 53.858-16.943 31.317m-4.417-3.131c-1.422-2.656 3.417-20.552 11.532-24.636 1.282 2.239-4.698 22.547-11.532 24.636m24.165 7.045c-2.558.71-5.226.782-7.789-.497 1.425-12.857 6.267-25.438 9.396-38.152 3.127 0 7.543.997 7.259 5.553h.715c4.841-12.528 13.237-4.698 11.104-.858h1.14c9.159-12.81 11.911-2.847 11.675-1.418-3.927 11.195-7.309 22.398-8.402 33.738-2.42.761-4.842.379-7.259-.709-.241-8.875 6.074-22.163 4.414-26.626-4.414 1.469-7.831 18.892-9.396 28.332-2.471.145-5.228.709-7.406-.854-.617-9.062 7.878-26.244 4.132-27.189-1.306-2.129-7.31 14.344-9.578 28.686m48.165-52.896c2.041 0 3.696 1.938 3.696 4.348 0 2.396-3.788 5.054-5.831 5.054-2.036 0-2.976-2.517-2.403-5.198.567-2.693 2.504-4.2 4.545-4.2m-.58 13.945c-3.472-.425-6.365-.425-9.545 4.271l-7.684 26.197c-.715 9.254 10.957 7.689 16.229.853 5.077 7.788 14.144 3.893 13.523-1.85-8.443.329-8.775-1.899-7.406-8.402 13.008 2.188 23.732-22.541 9.542-24.63-6.549.521-18.791 15.145-16.657 30.185l-3.845 2.704c-6.741 1.473.902-17.553 5.839-29.321m6.547 15.37c1.664-3.605 2.328-8.495 7.121-10.82 1.325-.236 1.948 10.062-7.121 10.823"/>
	<path d="M212.938 135.107c-1.431-1.096-2.989-1.61-4.699-.284-4.182 1.044-2.514 14.62 5.404 13.38 5.459-1.274 11.912-3.982 12.107-14.092-.357-7.477-6.009-15.149-2.854-17.658 3.754-4.27 6.791-1.852 10.393-2.133.712-1.613.997-3.227.854-5.27-4.078-3.085-18.408-5.313-19.502 8.262 1.186 8.114 5.934 23.776-1.143 24.344-2.178-.186-4.077-3.797-.56-6.549"/>
	<path d="M229.045 131.088v-5.968h-2.385v-1.207h6.38v1.207h-2.367v5.968h-1.628zm5.028 0v-7.175h2.45l1.447 4.896 1.424-4.896h2.442v7.175h-1.506v-5.651l-1.59 5.651h-1.566l-1.577-5.651-.013 5.651h-1.511z"/>
</svg>
