<svg xmlns="http://www.w3.org/2000/svg" x="0px" y="0px" viewBox="0 0 255 255">
	<path d="M58.3,91.1H28.1v72.7h30.2c21.1,0,32.2-13.9,32.2-37.1C90.5,103.6,77.6,91.1,58.3,91.1z M56.9,146.9h-9.4v-38.7h9.4c11.3,0,14.6,9.9,14.7,18.4C71.7,134.9,68.7,146.9,56.9,146.9z"/>
	<polygon points="233.5,146.9 233.5,91.1 213.6,91.1 213.6,161.1 197.8,120.1 187.6,147.9 193.4,163.9 255,163.9 255,146.9 "/>
	<rect y="91.1" width="19.4" height="72.7"/>
	<polygon points="164.5,91.1 142.5,146.9 114,146.9 114,134.9 133.6,134.9 133.6,119.6 114,119.6 114,108.1 137,108.1 137,91.1 94.5,91.1 94.5,163.9 156.6,163.9 183.2,91.1 "/>
	<polygon points="186.9,91.1 160.4,163.9 178.7,163.9 196.4,115.4 "/>
</svg>
