<svg xmlns="http://www.w3.org/2000/svg" x="0px" y="0px" viewBox="0 0 255 255">
	<path fill="#FFF" d="M58.3 91.1H28.1v72.7h30.2c21.1 0 32.2-13.9 32.2-37.1 0-23.1-12.9-35.6-32.2-35.6zm-1.4 55.8h-9.4v-38.7h9.4c11.3 0 14.6 9.9 14.7 18.4.1 8.3-2.9 20.3-14.7 20.3z"/>
	<path fill="#FFF" d="M233.5 146.9V91.1h-19.9v70l-15.8-41-10.2 27.8 5.8 16H255v-17z"/>
	<path fill="#FFF" d="M0 91.1h19.4v72.7H0z"/>
	<path fill="#FFF" d="M164.5 91.1l-22 55.8H114v-12h19.6v-15.3H114v-11.5h23v-17H94.5v72.8h62.1l26.6-72.8z"/>
	<path fill="#FFF" d="M186.9 91.1l-26.5 72.8h18.3l17.7-48.5z"/>
</svg>
