<svg xmlns="http://www.w3.org/2000/svg" x="0px" y="0px" viewBox="0 0 255 255">
	<path fill="#FFFFFF" d="M93.1 146.3h-9.3V161h2.8v-6.2h6.5c4.5 0 6.1-2.3 6.1-4.4 0-2.3-2.3-4.1-6.1-4.1zm-1 6.8h-5.5V148h5.6c2.3 0 4.1.6 4.1 2.5 0 2-1.7 2.6-4.2 2.6z"/>
	<path fill="#FFFFFF" d="M141.2 160.9h-3.1l-4.2-6c-.1-.1-.2-.1-.3-.1H128v6.2h-2.8v-14.7h9.3c3.8 0 6.1 1.8 6.1 4.1 0 1.7-1.1 3.6-4 4.2l4.6 6.3zm-13.2-7.8h5.5c2.5 0 4.2-.7 4.2-2.6 0-1.9-1.8-2.5-4.1-2.5H128v5.1z"/>
	<path fill="#FFFFFF" d="M108.5 146.3L99.9 161h3.2l2.4-4.3h9.1l2.3 4.3h3.4l-8.3-14.7h-3.5zm-2.1 8.7l3.7-6.5h.1l3.4 6.5h-7.2z"/>
	<path fill="#FFFFFF" d="M167.9 153.1l-5.7-1c-1.2-.2-2.3-.6-2.3-1.9 0-2.2 2.8-2.6 4.5-2.6 2.2 0 4.8.7 4.9 3h2.5c-.1-1.6-.8-4.7-7.7-4.7-4.8 0-6.8 2.3-6.8 4.5 0 2.6 2.9 3.2 4.2 3.5l4.1.7c3.3.6 4.2 1.1 4.2 2.6 0 2.1-3.3 2.5-5.2 2.5-2.5 0-5.5-.8-5.5-3.4h-2.5c0 1.4.3 2.6 2 3.7.9.6 2.3 1.4 6 1.4 3.4 0 7.8-1 7.8-4.4 0-2.3-1.9-3.5-4.5-3.9z"/>
	<path fill="#FFFFFF" d="M147.8 146.2h2.6v2.6h-2.6z"/>
	<path fill="#FFFFFF" d="M147.8 150.4h2.6v10.5h-2.6z"/>
	<path fill="#FFFFFF" d="M164.8 119.7v-4.1h-20.4v-11.9h27.2v-4h-32.9v36.8h32.9v-4h-27.2v-12.8z"/>
	<path fill="#FFFFFF" d="M165.4 93.8h-9.6l-4.4 5z"/>
	<path fill="#FFFFFF" d="M255 132.5h-28.1V99.7h-5.2v36.8H255z"/>
	<path fill="#FFFFFF" d="M193 99.7l-18.7 36.8h6.3l4.8-9.5h22.4l4.8 9.5h6.3l-18.7-36.8H193zm-5.3 22.7l8.8-17.6 8.9 17.6h-17.7z"/>
	<path fill="#FFFFFF" d="M120.9 121.1c8.4-2.3 9.3-8.5 9.2-10.8-.5-6.6-4.9-10.7-12.9-10.7H94v36.8h5.3V121h15.1l11.1 15.4h6.7c0 .1-8-10.3-11.3-15.3zm-4.4-4.4H99.3V104h17.8c4.1 0 6.4 1.9 7.2 4.3.5 1.7.2 3.9-.7 5.3-1.5 2.6-4.3 3.1-7.1 3.1z"/>
	<path fill="#FFFFFF" d="M62.2 93.5c-14.9 0-25.1 10.5-25.1 23.3 0 13.4 11.2 22.9 25.1 22.9 13.9 0 25.1-9.3 25.1-22.9 0-12.7-10.3-23.3-25.1-23.3zm-.2 41.6c-10.3 0-18.8-8.3-18.8-18.3s8.1-18.7 19.2-18.7c10.9 0 18.8 8.7 18.8 18.7.1 10-8.8 18.3-19.2 18.3z"/>
	<path fill="#FFFFFF" d="M27.6 112.8l6.9-13H29l-5.2 13z"/>
	<path fill="#FFFFFF" d="M33.3 132.5H5.1V99.8H0v36.8h33.3z"/>
</svg>
