<svg xmlns="http://www.w3.org/2000/svg" x="0px" y="0px" viewBox="0 0 255 255">
	<path fill="#FFF" d="M163.5 126.8v21.7c7 .7 13.3.7 18.2.7 11.9 0 18.2-1.4 21.7-2.1 0-2.1.7-5.6.7-9.1s-.7-7-.7-9.1c-5.7-2.1-19.7-5.6-39.9-2.1z"/>
	<path fill="#FFF" d="M94.3 126.8v21.7c7 .7 13.3.7 18.2.7 12.6 0 18.9-1.4 21.7-2.1 0-2.1.7-5.6.7-9.1s-.7-7-.7-9.1c-5.7-2.1-19.6-5.6-39.9-2.1z"/>
	<path fill="#FFF" d="M0 71.6v111.8h230.5L255 71.6H0zm74.8 53.8c-23.8 0-36.3 4.2-40.5 5.6v27.2h-9.8v-33.5s14-8.4 50.3-9.1v9.8zm67 28.7s-6.3 4.9-29.3 4.9c-12.6 0-27.2-2.1-27.2-2.1V96.1h9.1v20.3c5.6-.7 11.2-1.4 15.4-1.4 21.7 0 32.1 6.3 32.1 6.3s2.1 2.8 2.1 16.1c-.1 13.2-2.2 16.7-2.2 16.7zm69.2 0s-6.3 4.9-29.3 4.9c-12.6 0-27.2-2.1-27.2-2.1V96.1h9.1v20.3c5.6-.7 11.2-1.4 15.4-1.4 21.7 0 32.1 6.3 32.1 6.3s2.1 2.8 2.1 16.1c-.1 13.2-2.2 16.7-2.2 16.7z"/>
</svg>
