<svg xmlns="http://www.w3.org/2000/svg" x="0px" y="0px" viewBox="0 0 255 255">
	<path fill="#FFFFFF" d="M148.8 47.3c-6.8-1.8-14-2.7-21.3-2.7-7.2 0-14.2.9-20.7 2.6l21 58 21-57.9z"/>
	<path fill="#FFFFFF" d="M169.2 55.9l-24.3 66.9h-34.3L86.3 55.6c-9 5.2-16.9 12-23.4 20l34.6 89.8 12.7-32.8h33.3l12.7 32.8 35-91c-6.1-7.3-13.6-13.6-22-18.5z"/>
	<path fill="#FFFFFF" d="M44.6 127.6c0 31.2 17.4 58.6 43.1 72.6L49.3 99.9c-3.1 8.7-4.7 18-4.7 27.7z"/>
	<path fill="#FFFFFF" d="M126.8 150.2l-21.4 55.5-.1 1.7c7.1 2 14.5 3 22.2 3 7.3 0 14.3-.9 20.9-2.6l-.3-2.1-21.3-55.5z"/>
	<path fill="#FFFFFF" d="M205.2 98.2l-39.4 102.9c26.5-13.9 44.7-41.6 44.7-73.6-.1-10.3-1.9-20.2-5.3-29.3z"/>
	<path fill="#FFFFFF" d="M127.6 16.9c-61 0-110.7 49.7-110.7 110.7 0 60.8 49.8 110.6 110.7 110.6s110.6-49.8 110.6-110.6c-.1-61.1-49.7-110.7-110.6-110.7zm0 207.1C74.5 224 31 180.7 31 127.5s43.4-96.7 96.6-96.7c53.1 0 96.6 43.4 96.6 96.7-.1 53.2-43.5 96.5-96.6 96.5z"/>
</svg>
