<svg xmlns="http://www.w3.org/2000/svg" x="0px" y="0px" viewBox="0 0 255 255">
	<path class="st0" d="M230.1,106.1H255V94.3h-30c-16.1,0-22.7,9-22.7,23.2l0,1.4c-2.7-16.6-12.6-24.5-30.7-24.5h-30.4C129,69.8,103.8,53,74.5,53C33.4,53,0,86.3,0,127.5C0,168.7,33.4,202,74.5,202c29.1,0,54.2-16.6,66.5-40.8h31c7.4,0,14.1-0.4,20.9-5.9c4.9-3.9,8-9.4,9.4-16.6v22.3h14.2l0-26.3H250v-11.7h-33.5l0.2-4.7C216.6,110.7,218.9,106.1,230.1,106.1z M141,149.7v11.4H84.8v-16.6c0-14.1,6.6-22.5,22.7-22.5h9.3c7.4,0,11.7-1.5,11.7-7.7c0-6.4-4.3-8.2-11.9-8.2H85.2V94.3h36.5c18.5,0,21.1,13,21.1,20.2c0,7.7-3.1,19.9-21.2,19.9h-9c-11.2,0-13.6,4.1-13.6,11.7v3.6H141z M171.3,149.4h-15.7v-43.3h15.7c12.3,0,16.7,5.3,16.7,21.7C188.1,144.1,183.6,149.4,171.3,149.4z"/>
</svg>
