<svg xmlns="http://www.w3.org/2000/svg" x="0px" y="0px" viewBox="0 0 255 255">
	<path d="M90.2,161.6c6.7-0.3,14.2,1.6,20.3,5.9c-2-2.9-7.8-7.2-12.6-10.2c-4.9-3-11.1-4.9-18.3-5c-18.5-0.2-38.7,8.8-52.4,9c-16.1,0.1-16.9-12.3-15.7-19.1c2.6-14.7,13-28.7,19.7-36c6.7-7.4,13.7-13.1,19.5-14.6c5.8-1.5,5.3,3,4.6,3.6c-0.7,0-2.1,0.2-2.9,0.7c-1.3,0.9-2.9,2.5-3,5c-0.2,3.9,4.8,4.6,8.4-3.6c2.5-5.5-1.4-9.3-4.7-9.6c-4.5-0.5-11.3,1.1-19.4,6.3C19.4,103,0.5,123.2,0,145.6c-0.3,12.8,8.1,20,19.5,20c11.9,0,27-7,42.2-7.2c9.4-0.1,15.5,3.2,18.6,8.6C80.3,167,83.4,161.9,90.2,161.6 M132.8,107.7h-7.6l-4.3,7h7.6L132.8,107.7z M245.8,95.2c-5.7,3.6-13.5,6.9-21,6.2c-1.9,2-3.9,4.3-6,6.7c13.1,2.6,24.5-5.5,30.6-12.4c3.8-4.3,5.7-8.1,5.7-8.1S251.4,91.5,245.8,95.2z M239.6,127.1h-8.1l-1.3,2c0,0-1.6-3-4.4-2.9c-4.8,0.1-9.5,3.7-15.1,10c-4.1,4.6-10.8,14.9-10.8,14.9s-5.2,8-7.8,7.3c-4.4-1.1,3.7-17.5,3.7-17.5s4.3-2.7,9.9-7.4c3.5-3,7.6-7,11.3-10.8c3.4-3.4,7.4-8.1,11.1-13.2c-1,0.2-2,0.3-3,0.3c-3.4,4.5-7,8.5-10.1,11.7c-4.6,4.7-8.8,8.6-11.9,11.1c-2.9,2.4-4.8,3.4-4.8,3.4s5.6-11.5,15-24.2c9.3-12.7,22.4-24.5,21.4-18.9c-0.3,1.6-1.3,3.9-2.8,6.7c1.1-0.2,2.1-0.5,3.1-0.8c2.2-4.6,3-8.5,1.3-9.6c-6.9-4.5-24.3,14.2-33,25c-8.7,10.9-16.7,27.4-16.7,27.4s-1.4,0.6-2.9,0.9c-1,0.2-1.4,0.1-1.5,0.1c-0.1,0-0.1-0.1-0.1-0.1s7.7-14.4-0.2-16.3c-7.6-1.8-20.8,12.2-25.4,22c-3.2,6.7-5,15.1,0.5,17.2c6,2.2,16.1-8.7,18.5-11.9c2.4-3.2,5.4-8.4,5.4-8.4s1.5-0.1,2.3-0.2c1.5-0.2,2.2-0.4,2.2-0.4s-1,2.6-2.1,5.9c-2,6.1-3.8,14.9,3.4,15.3c4.6,0.3,11.3-8,11.3-8s-1.8,7.3,4.1,8c4.4,0.5,10.7-6.3,10.7-6.3s-1.4,5.8,3,6.3c3.8,0.4,9.2-4,13.6-8.9c4.8-5.3,8.5-11.2,8.5-11.2h-2.8c0,0-6.2,9.4-10.6,11.9c-3.6,2.1-2.4-1.2-1.3-3C224.6,152.6,239.6,127.1,239.6,127.1L239.6,127.1z M178.3,144.8c-0.1,0.3-2.1,3.8-4.3,6.5c-2.3,3-6.6,7.4-9.1,6.5c-4-1.5,0.4-10.2,3.3-14.4c2.9-4.2,3.2-4.5,3.3-4.6c0.1-0.1,0.2-0.2,0.2-0.1c0.1,0.1,1,1.9,2.8,3.4c1.8,1.5,3.6,2.3,3.7,2.4C178.3,144.5,178.4,144.6,178.3,144.8L178.3,144.8z M180.1,141.7c-0.3,0.4-0.4,0.4-1,0.3c-0.9-0.2-4.7-2-4.7-5.9c0-3.8,5.4-7.6,7.5-6c2,1.5,1,5.3,0.3,7.3C181.5,139.3,180.2,141.4,180.1,141.7L180.1,141.7z M216.6,151.1c-1.1,1.5-1.9,2.8-2.7,3.7c-1.7,2-2.8,2.9-3.8,3.1c-0.5,0.1-1.1,0.1-1.5-0.2c-1.5-0.9-0.4-4.4,2.1-9c2.3-4.3,5-8.5,9.5-13.4c4.4-4.9,6.1-5.2,7.4-5.1c1,0.1,1.2,1.1,1.2,1.1s-0.1,0.2-0.2,0.5C226.9,134.5,219.6,147.1,216.6,151.1L216.6,151.1z M55.7,106.9c-7.8-2-20.7,11.2-26.1,22c-3.4,6.6-4.8,15,1.1,17.2c6,2.2,16.1-8.7,18.5-11.9c2.4-3.2,6.3-9.5,6.3-9.5s1.2-0.2,2-0.4c0.8-0.2,2.1-0.5,2.1-0.5s-1.5,2.6-2.8,5.3c-1.6,3.2-5.8,13.8,2.4,16.9c7.9,3,19.1-9.6,19.7-9.9c0,0-3.3,8.6,1.8,9.9c5.7,1.5,11.9-5.8,11.9-5.8s-1.3,5.5,3.1,6c7.9,0.9,22-19.4,22-19.4h-2.8c0,0-7.1,9.2-10.6,11.1c-3.4,1.9-2.2-1.5-1.3-3c1.2-1.9,16.4-27.3,16.4-27.3h-8l-0.9,1.5c0,0-1.7-2.5-4.4-2.4c-8.1,0.5-17.7,13.4-21.9,19.1c-4.2,5.7-13.3,16.5-18.1,14.6c-5.2-2.1,0-11.8,3.4-17.4c3.7-6.2,10.4-12.3,13-12.3c3.2-0.1,2,2.9,2,2.9s-2.4-0.3-4.2,1.9c-1.2,1.6-2.3,3.8-1.1,5.1c1.9,2,4.4,0,5.8-2.3c4.6-7,1.2-10.8-2.4-11.3c-7.7-1.2-14.8,8.7-20.2,12.4c-3.7,2.6-5.3,2.4-5.3,2.4S63.5,108.9,55.7,106.9L55.7,106.9z M90.6,129.7c2.3-4.3,5.5-8.4,9.6-13.5c4.1-5.2,6.2-5.6,7.4-5.5c1,0.1,1.2,1.1,1.2,1.1s-9,15.6-12.2,20.1c-1.1,1.5-2,2.7-2.8,3.6c-1.7,2-3,2.9-3.9,3.2c-0.5,0.1-1.1,0.1-1.5-0.2C86.9,137.7,88,134.4,90.6,129.7L90.6,129.7z M52.5,124.7c-0.1,0.2-2.7,4.5-4.8,7.2c-2.3,3-6.6,7.5-9.2,6.5c-4-1.5,0.3-10.1,3.1-14.3c2.9-4.2,3.3-4.8,3.4-4.9c0.1-0.1,0.2-0.2,0.2-0.1c0.1,0.1,1,2,3,3.3c2,1.3,4,1.8,4.2,1.9C52.5,124.3,52.6,124.4,52.5,124.7L52.5,124.7z M55.8,118.1c-0.7,1.9-1.4,3.2-1.5,3.5c-0.2,0.5-0.8,0.3-0.8,0.3c-0.6,0-5.5-1.1-5.5-5.1c0-3.8,5.4-7.6,7.5-6C57.5,112.3,56.6,116.1,55.8,118.1L55.8,118.1z M152.7,126.1c-4,0.3-11.1,3.9-15,11.8c-3.9,7.8-3.9,12.7-3.9,12.7s2-2.2,5.2-4.6c3.1-2.3,5.4-3.2,5.4-3.2s0.6-2.9,2-5.9c1.4-2.9,3.6-6,6.4-6.7c5.6-1.4,2.9,8.8-1.2,15.4c-2.2,3.6-10,13.8-16.7,13.8c-6.7,0-8-6.5-6.6-12.5c1.4-6.1,3.4-13.8,13.2-27.7c9.8-14,20.4-22.3,26.6-25.8c6.3-3.6,8.9-2,8.9-2s-8.1,5-12.6,10.9c-4.4,5.7-7,12.1-5,15.3c1.9,3,8.8,3.1,16.3-7.8c7.4-10.7,5.6-17.1,5.6-17.1s0.9-0.3,1.5-0.4c3.6-0.5,6.5,0.5,11,2.8c4.7,2.4,9.2,6.3,15.4,9.4c1.9-2,3.9-4.2,6.1-6.3c-8.3-4.1-14.7-9.8-22.8-10.4c-7.1-0.5-12.7,2.1-12.7,2.1s-2.2-3-8.9-2c-6.7,1-27.3,9.6-44.9,37.7c-15.9,25.4-8.4,40,3,39.8c12.4-0.2,24.1-13.9,28.1-25.3C161,128.9,156.3,125.8,152.7,126.1L152.7,126.1z M176.9,102.5c-2.1,5.1-5.1,8.6-8.1,11.3c-3.9,3.5-6,3.4-6.9,2.7c-2.4-1.8,0.8-8.7,6.4-14.9c5.6-6.1,10.3-8,10.3-8C178.6,93.7,179.4,96.5,176.9,102.5z"/>
</svg>
