<svg xmlns="http://www.w3.org/2000/svg" x="0px" y="0px" viewBox="0 0 255 255">
	<path d="M93.1,146.3h-9.3V161h2.8v-6.2h6.5c4.5,0,6.1-2.3,6.1-4.4C99.2,148.1,96.9,146.3,93.1,146.3z M92.1,153.1h-5.5V148h5.6c2.3,0,4.1,0.6,4.1,2.5C96.3,152.5,94.6,153.1,92.1,153.1L92.1,153.1z"/>
	<path d="M141.2,160.9h-3.1l-4.2-6c-0.1-0.1-0.2-0.1-0.3-0.1h0.1c0,0-0.1,0-0.1,0H128v6.2h-2.8v-14.7h9.3c3.8,0,6.1,1.8,6.1,4.1c0,1.7-1.1,3.6-4,4.2L141.2,160.9z M128,153.1h5.5c2.5,0,4.2-0.7,4.2-2.6c0-1.9-1.8-2.5-4.1-2.5H128L128,153.1L128,153.1z"/>
	<path d="M108.5,146.3L99.9,161h3.2l2.4-4.3h9.1l2.3,4.3h3.4l-8.3-14.7H108.5z M106.4,155l3.7-6.5h0.1l3.4,6.5H106.4L106.4,155z"/>
	<path d="M167.9,153.1l-5.7-1c-1.2-0.2-2.3-0.6-2.3-1.9c0-2.2,2.8-2.6,4.5-2.6c2.2,0,4.8,0.7,4.9,3h2.5c-0.1-1.6-0.8-4.7-7.7-4.7c-4.8,0-6.8,2.3-6.8,4.5c0,2.6,2.9,3.2,4.2,3.5l4.1,0.7c3.3,0.6,4.2,1.1,4.2,2.6c0,2.1-3.3,2.5-5.2,2.5c-2.5,0-5.5-0.8-5.5-3.4h-2.5c0,1.4,0.3,2.6,2,3.7c0.9,0.6,2.3,1.4,6,1.4c3.4,0,7.8-1,7.8-4.4C172.4,154.7,170.5,153.5,167.9,153.1L167.9,153.1z"/>
	<rect x="147.8" y="146.2" width="2.6" height="2.6"/>
	<rect x="147.8" y="150.4" width="2.6" height="10.5"/>
	<polygon points="164.8,119.7 164.8,115.6 144.4,115.6 144.4,103.7 171.6,103.7 171.6,99.7 138.7,99.7 138.7,136.5 171.6,136.5 171.6,132.5 144.4,132.5 144.4,119.7 "/>
	<polygon points="165.4,93.8 155.8,93.8 151.4,98.8 "/>
	<polygon points="255,132.5 226.9,132.5 226.9,99.7 221.7,99.7 221.7,136.5 255,136.5 "/>
	<path d="M193,99.7l-18.7,36.8h6.3l4.8-9.5h22.4l4.8,9.5h6.3l-18.7-36.8H193L193,99.7z M187.7,122.4l8.8-17.6l8.9,17.6H187.7z"/>
	<path d="M120.9,121.1c8.4-2.3,9.3-8.5,9.2-10.8c-0.5-6.6-4.9-10.7-12.9-10.7H94v36.8h5.3v-15.4h15.1l11.1,15.4h6.7C132.2,136.5,124.2,126.1,120.9,121.1L120.9,121.1z M116.5,116.7H99.3v-12.7h17.8c4.1,0,6.4,1.9,7.2,4.3c0.5,1.7,0.2,3.9-0.7,5.3C122.1,116.2,119.3,116.7,116.5,116.7z"/>
	<path d="M62.2,93.5c-14.9,0-25.1,10.5-25.1,23.3c0,13.4,11.2,22.9,25.1,22.9c13.9,0,25.1-9.3,25.1-22.9C87.3,104.1,77,93.5,62.2,93.5z M62,135.1c-10.3,0-18.8-8.3-18.8-18.3c0-10,8.1-18.7,19.2-18.7c10.9,0,18.8,8.7,18.8,18.7C81.3,126.8,72.4,135.1,62,135.1L62,135.1z"/>
	<polygon points="27.6,112.8 34.5,99.8 29,99.8 23.8,112.8 "/>
	<polygon points="33.3,132.5 5.1,132.5 5.1,99.8 0,99.8 0,136.6 33.3,136.6 "/>
</svg>
