<svg xmlns="http://www.w3.org/2000/svg" x="0px" y="0px" viewBox="0 0 255 255">
	<path d="M163.5,126.8v21.7c7,0.7,13.3,0.7,18.2,0.7c11.9,0,18.2-1.4,21.7-2.1c0-2.1,0.7-5.6,0.7-9.1c0-3.5-0.7-7-0.7-9.1C197.7,126.8,183.7,123.3,163.5,126.8z"/>
	<path d="M94.3,126.8v21.7c7,0.7,13.3,0.7,18.2,0.7c12.6,0,18.9-1.4,21.7-2.1c0-2.1,0.7-5.6,0.7-9.1c0-3.5-0.7-7-0.7-9.1C128.5,126.8,114.6,123.3,94.3,126.8z"/>
	<path d="M0,71.6v111.8h230.5L255,71.6H0z M74.8,125.4c-23.8,0-36.3,4.2-40.5,5.6v27.2h-9.8v-33.5c0,0,14-8.4,50.3-9.1V125.4z M141.8,154.1c0,0-6.3,4.9-29.3,4.9c-12.6,0-27.2-2.1-27.2-2.1V96.1h9.1v20.3c5.6-0.7,11.2-1.4,15.4-1.4c21.7,0,32.1,6.3,32.1,6.3s2.1,2.8,2.1,16.1C143.9,150.6,141.8,154.1,141.8,154.1z M211,154.1c0,0-6.3,4.9-29.3,4.9c-12.6,0-27.2-2.1-27.2-2.1V96.1h9.1v20.3c5.6-0.7,11.2-1.4,15.4-1.4c21.7,0,32.1,6.3,32.1,6.3s2.1,2.8,2.1,16.1C213.1,150.6,211,154.1,211,154.1z"/>
</svg>
