<svg xmlns="http://www.w3.org/2000/svg" x="0px" y="0px" viewBox="0 0 255 255">
	<path d="M148.8,47.3c-6.8-1.8-14-2.7-21.3-2.7c-7.2,0-14.2,0.9-20.7,2.6l21,58L148.8,47.3z"/>
	<path d="M169.2,55.9l-24.3,66.9h-10.8h-12.7h-10.8L86.3,55.6c-9,5.2-16.9,12-23.4,20l34.6,89.8l12.7-32.8h9.8h13.7h9.8l12.7,32.8l35-91C185.1,67.1,177.6,60.8,169.2,55.9z"/>
	<path d="M44.6,127.6c0,31.2,17.4,58.6,43.1,72.6L49.3,99.9C46.2,108.6,44.6,117.9,44.6,127.6z"/>
	<path d="M126.8,150.2l-21.4,55.5l-0.1,1.7c7.1,2,14.5,3,22.2,3c7.3,0,14.3-0.9,20.9-2.6l-0.3-2.1L126.8,150.2z"/>
	<path d="M205.2,98.2l-39.4,102.9c26.5-13.9,44.7-41.6,44.7-73.6C210.4,117.2,208.6,107.3,205.2,98.2z"/>
	<path d="M127.6,16.9c-61,0-110.7,49.7-110.7,110.7c0,60.8,49.8,110.6,110.7,110.6s110.6-49.8,110.6-110.6C238.1,66.5,188.5,16.9,127.6,16.9z M127.6,224C74.5,224,31,180.7,31,127.5s43.4-96.7,96.6-96.7c53.1,0,96.6,43.4,96.6,96.7C224.1,180.7,180.7,224,127.6,224z"/>
</svg>
