<?xml version="1.0" encoding="utf-8"?>
<svg version="1.1" xmlns="http://www.w3.org/2000/svg" x="0px" y="0px" viewBox="0 0 512 512">
	<path d="M512,94.7c-18.8,8.5-39.1,14.2-60.3,16.7c21.7-13.2,38.3-34,46.2-58.8c-20.3,12.2-42.8,21-66.7,25.8c-19.2-20.7-46.5-33.6-76.7-33.6c-58,0-105,47.6-105,106.3c0,8.3,0.9,16.4,2.7,24.2C164.9,171,87.5,128.7,35.6,64.4c-9,15.7-14.2,34-14.2,53.4c0,36.9,18.5,69.4,46.7,88.5c-17.2-0.6-33.4-5.3-47.6-13.3c0,0.4,0,0.9,0,1.3c0,51.5,36.2,94.5,84.3,104.2c-8.8,2.4-18.1,3.7-27.7,3.7c-6.8,0-13.3-0.7-19.8-1.9c13.4,42.2,52.2,73,98.1,73.8c-35.9,28.5-81.2,45.5-130.5,45.5c-8.5,0-16.8-0.5-25.1-1.5c46.5,30.2,101.7,47.8,161,47.8c193.2,0,298.9-162,298.9-302.4c0-4.6-0.1-9.2-0.3-13.8C480.1,134.8,497.9,116.1,512,94.7"/>
</svg>
