<svg version="1.1" xmlns="http://www.w3.org/2000/svg" viewBox="0 0 64 64" width="64px" height="64">
	<path d="M35.732 62.7851c-1.7268 0-3.2097-.4071-4.4485-1.2214s-2.2337-1.892-2.9845-3.2333c-.7508-1.3412-1.2388-2.898-1.464-4.6702-.2253-1.7723-.1502-3.6644.2252-5.6762.2252-1.3412.6006-3.1374 1.1262-5.3887.5256-2.2513 1.07-4.6942 1.633-7.3287a294.0554 294.0554 0 0 0 1.5767-7.9035c.488-2.6345.8071-5.0295.9573-7.185.1502-2.1556.075-3.9278-.2252-5.317-.3004-1.389-.9386-2.0836-1.9146-2.0836-1.2013 0-2.4401.503-3.7165 1.5089-1.2764 1.0059-2.5715 2.371-3.8854 4.0954-1.314 1.7244-2.6279 3.7123-3.9418 5.9636-1.314 2.2513-2.609 4.5744-3.8854 6.9694-.6758 3.2572-1.2389 6.1073-1.6894 8.5502-.4504 2.4429-.8446 4.6463-1.1825 6.6102-.3378 1.9639-.657 3.6883-.9573 5.1732-.3003 1.4849-.563 2.898-.7883 4.2391-.2253.958-.901 1.892-2.0272 2.8022-1.1262.91-2.3275 1.6525-3.6039 2.2273-1.2764.5748-2.3838.8622-3.3223.8622-.9385 0-1.3327-.431-1.1825-1.2933.075-.5748.319-1.868.732-3.8799.413-2.0118.901-4.3828 1.464-7.1131a896.8402 896.8402 0 0 0 1.7457-8.6939 1372.8375 1372.8375 0 0 0 1.6893-8.7657 3163.906 3163.906 0 0 0 1.2389-7.3287c.3754-2.2992.8446-4.9816 1.4077-8.0472.5631-3.0656 1.2201-6.4186 1.971-10.059.5255-.5748 1.0698-1.0298 1.633-1.3651.563-.3353 1.1449-.5988 1.7456-.7904.6006-.2874 1.2388-.479 1.9145-.5748.6007 0 1.2013.0479 1.802.1437.5255.0958 1.0699.2635 1.633.503.563.2395 1.0699.5987 1.5204 1.0777-.2253.6706-.488 1.6046-.7884 2.8022-.3003 1.1975-.6006 2.4668-.901 3.808-.3003 1.5328-.6757 3.1135-1.1262 4.7421.976-1.7244 2.0835-3.4727 3.3224-5.245 1.2388-1.7724 2.5902-3.377 4.0543-4.814 1.4641-1.437 3.022-2.6105 4.6738-3.5206C31.415 2.455 33.1042 2 34.8311 2c1.4265 0 2.7029.5269 3.829 1.5807 1.1263 1.0538 2.0085 2.5147 2.6467 4.3829.6382 1.868 1.0136 4.0954 1.1262 6.682.1126 2.5866-.169 5.4127-.8447 8.4783l-1.2388 6.3228c-.3754 2.0118-.8446 4.3829-1.4078 7.1132-.563 2.7303-1.2576 5.724-2.0834 8.9812-.4505 2.1076-.6195 3.9278-.5068 5.4606.1126 1.5328.8446 2.2992 2.196 2.2992 1.3515 0 3.0596-1.0538 5.1243-3.1614 2.0648-2.1076 4.1483-4.6463 6.2505-7.616a148.3909 148.3909 0 0 0 5.969-9.125c1.877-3.1135 3.3035-5.6283 4.2796-7.5443.6757-1.2454 1.3139-2.0597 1.9145-2.4429.6007-.3832 1.07-.431 1.4078-.1437.3379.2874.5068.934.5068 1.94 0 1.0059-.3003 2.2752-.901 3.808-.5255 1.3412-1.3327 3.1135-2.4213 5.317-1.0887 2.2033-2.3838 4.5504-3.8855 7.0412-1.5016 2.4908-3.1158 5.0056-4.8427 7.5443-1.7269 2.5387-3.5288 4.8379-5.4058 6.8976-1.877 2.0597-3.7353 3.7362-5.5748 5.0295-1.8395 1.2933-3.585 1.94-5.2369 1.94z"/>
</svg>
