<?xml version="1.0" encoding="utf-8"?>
<svg version="1.1" xmlns="http://www.w3.org/2000/svg" x="0px" y="0px" viewBox="0 0 512 512">
	<path d="M498,308.3v178.9H394.3v-167c0-41.9-15-70.6-52.5-70.6c-28.7,0-45.7,19.3-53.2,38c-2.7,6.7-3.4,16-3.4,25.3v174.3H181.3c0,0,1.4-282.8,0-312.1H285v44.2c-0.2,0.3-0.5,0.7-0.7,1h0.7v-1c13.8-21.2,38.4-51.6,93.5-51.6C446.8,167.9,498,212.5,498,308.3 M72.7,24.8C37.2,24.8,14,48,14,78.7c0,30,22.5,53.9,57.3,53.9H72c36.2,0,58.7-24,58.7-53.9C130,48,108.2,24.8,72.7,24.8 M20.2,487.2h103.7V175.2H20.2V487.2z"/>
</svg>
