<svg xmlns="http://www.w3.org/2000/svg" x="0px" y="0px" viewBox="0 0 255 255">
	<path fill="#FFF" d="M8.2 137.9h2.4c1.6 0 3.1-1.4 3.1-4.1 0-2.6-1.5-4-3.1-4H8.2v8.1zm0-14h2.1c1.8 0 2.8-1.6 2.8-3.4 0-1.9-1-3.5-2.8-3.5H8.2v6.9zm-8.7-13.1h13.1c6.2 0 9.1 3.3 9.1 8.3 0 3.5-1.5 6.7-5.2 7.5v.1c4.4.4 6.2 4.2 6.2 7.6 0 5.8-2.8 9.9-10.1 9.9H-.5v-33.4z"/>
	<path fill="#FFF" d="M37.1 139c2.7 0 3-2.4 3-11.5 0-9-.3-11.5-3-11.5s-2.9 2.4-2.9 11.5c0 9 .2 11.5 2.9 11.5m0-28.9c8.9 0 11.9 4.9 11.9 17.3 0 12.5-3 17.4-11.9 17.4s-11.9-4.9-11.9-17.4c0-12.4 3-17.3 11.9-17.3"/>
	<path fill="#FFF" d="M52.3 110.8h12.4l3.5 19.8h.1l3.5-19.8h12.4v33.4h-8.1v-24.9H76l-4.6 24.9h-6.3l-4.6-24.9h-.1v24.9h-8.1v-33.4z"/>
	<path fill="#FFF" d="M96.8 137.9h2.4c1.6 0 3.1-1.4 3.1-4.1 0-2.6-1.5-4-3.1-4h-2.4v8.1zm0-14h2.1c1.8 0 2.8-1.6 2.8-3.4 0-1.9-1-3.5-2.8-3.5h-2.1v6.9zm-8.7-13.1h13.1c6.2 0 9.1 3.3 9.1 8.3 0 3.5-1.5 6.7-5.2 7.5v.1c4.4.4 6.2 4.2 6.2 7.6 0 5.8-2.8 9.9-10.1 9.9H88.1v-33.4z"/>
	<path fill="#FFF" d="M125.4 117.6l-2.5 14.2h4.9l-2.4-14.2zm-5.5-6.8h10.9l8.1 33.4h-9.3l-.9-5.8h-6.9l-.9 5.8h-9.3l8.3-33.4z"/>
	<path fill="#FFF" d="M150.1 124.9h1.7c2.5 0 3.6-1.6 3.6-4 0-2.7-1.1-3.9-3.7-3.9H150v7.9zm-8.7-14.1H155c6.6 0 9.2 3.7 9.2 8.9 0 4.4-1.7 7.3-5.7 7.9v.1c4.2.4 5.5 3 5.5 7.5v2.8c0 1.7 0 4 .4 4.6.2.4.4.7 1 1v.5H156c-.8-1.8-.8-5-.8-6.3v-2.3c0-3.8-.8-4.8-2.9-4.8H150v13.4h-8.7v-33.3z"/>
	<path fill="#FFF" d="M176.6 137.9h1.7c3.4 0 3.8-1.4 3.8-10.4s-.4-10.4-3.8-10.4h-1.7v20.8zm-8.7-27.1h12.6c10.1 0 10.6 8 10.6 16.7 0 8.8-.5 16.7-10.6 16.7h-12.6v-33.4z"/>
	<path fill="#FFF" d="M194.6 110.8h8.7v33.4h-8.7v-33.4z"/>
	<path fill="#FFF" d="M207.2 110.8H227v7.1h-11.1v5.7h10.4v6.8h-10.4v6.6h11.5v7.1h-20.2v-33.3z"/>
	<path fill="#FFF" d="M239.3 124.9h1.7c2.5 0 3.7-1.6 3.7-4 0-2.7-1.1-3.9-3.7-3.9h-1.7v7.9zm-8.7-14.1h13.6c6.7 0 9.2 3.7 9.2 8.9 0 4.4-1.7 7.3-5.7 7.9v.1c4.2.4 5.5 3 5.5 7.5v2.8c0 1.7 0 4 .4 4.6.2.4.4.7 1 1v.5h-9.2c-.8-1.8-.8-5-.8-6.3v-2.3c0-3.8-.8-4.8-2.9-4.8h-2.3v13.4h-8.7v-33.3z"/>
</svg>
