<svg xmlns="http://www.w3.org/2000/svg" x="0px" y="0px" viewBox="0 0 255 255">
	<path d="M90.2 161.6c6.7-.3 14.2 1.6 20.3 5.9-2-2.9-7.8-7.2-12.6-10.2-4.9-3-11.1-4.9-18.3-5-18.5-.2-38.7 8.8-52.4 9-16.1.1-16.9-12.3-15.7-19.1 2.6-14.7 13-28.7 19.7-36 6.7-7.4 13.7-13.1 19.5-14.6 5.8-1.5 5.3 3 4.6 3.6-.7 0-2.1.2-2.9.7-1.3.9-2.9 2.5-3 5-.2 3.9 4.8 4.6 8.4-3.6 2.5-5.5-1.4-9.3-4.7-9.6-4.5-.5-11.3 1.1-19.4 6.3C19.4 103 .5 123.2 0 145.6c-.3 12.8 8.1 20 19.5 20 11.9 0 27-7 42.2-7.2 9.4-.1 15.5 3.2 18.6 8.6 0 0 3.1-5.1 9.9-5.4m42.6-53.9h-7.6l-4.3 7h7.6l4.3-7zm113-12.5c-5.7 3.6-13.5 6.9-21 6.2-1.9 2-3.9 4.3-6 6.7 13.1 2.6 24.5-5.5 30.6-12.4 3.8-4.3 5.7-8.1 5.7-8.1s-3.7 3.9-9.3 7.6zm-6.2 31.9h-8.1l-1.3 2s-1.6-3-4.4-2.9c-4.8.1-9.5 3.7-15.1 10-4.1 4.6-10.8 14.9-10.8 14.9s-5.2 8-7.8 7.3c-4.4-1.1 3.7-17.5 3.7-17.5s4.3-2.7 9.9-7.4c3.5-3 7.6-7 11.3-10.8 3.4-3.4 7.4-8.1 11.1-13.2-1 .2-2 .3-3 .3-3.4 4.5-7 8.5-10.1 11.7-4.6 4.7-8.8 8.6-11.9 11.1-2.9 2.4-4.8 3.4-4.8 3.4s5.6-11.5 15-24.2c9.3-12.7 22.4-24.5 21.4-18.9-.3 1.6-1.3 3.9-2.8 6.7 1.1-.2 2.1-.5 3.1-.8 2.2-4.6 3-8.5 1.3-9.6-6.9-4.5-24.3 14.2-33 25-8.7 10.9-16.7 27.4-16.7 27.4s-1.4.6-2.9.9c-1 .2-1.4.1-1.5.1-.1 0-.1-.1-.1-.1s7.7-14.4-.2-16.3c-7.6-1.8-20.8 12.2-25.4 22-3.2 6.7-5 15.1.5 17.2 6 2.2 16.1-8.7 18.5-11.9 2.4-3.2 5.4-8.4 5.4-8.4s1.5-.1 2.3-.2c1.5-.2 2.2-.4 2.2-.4s-1 2.6-2.1 5.9c-2 6.1-3.8 14.9 3.4 15.3 4.6.3 11.3-8 11.3-8s-1.8 7.3 4.1 8c4.4.5 10.7-6.3 10.7-6.3s-1.4 5.8 3 6.3c3.8.4 9.2-4 13.6-8.9 4.8-5.3 8.5-11.2 8.5-11.2h-2.8s-6.2 9.4-10.6 11.9c-3.6 2.1-2.4-1.2-1.3-3 1.4-1.9 16.4-27.4 16.4-27.4zm-61.3 17.7c-.1.3-2.1 3.8-4.3 6.5-2.3 3-6.6 7.4-9.1 6.5-4-1.5.4-10.2 3.3-14.4 2.9-4.2 3.2-4.5 3.3-4.6.1-.1.2-.2.2-.1.1.1 1 1.9 2.8 3.4 1.8 1.5 3.6 2.3 3.7 2.4.1 0 .2.1.1.3zm1.8-3.1c-.3.4-.4.4-1 .3-.9-.2-4.7-2-4.7-5.9 0-3.8 5.4-7.6 7.5-6 2 1.5 1 5.3.3 7.3-.7 1.9-2 4-2.1 4.3zm36.5 9.4c-1.1 1.5-1.9 2.8-2.7 3.7-1.7 2-2.8 2.9-3.8 3.1-.5.1-1.1.1-1.5-.2-1.5-.9-.4-4.4 2.1-9 2.3-4.3 5-8.5 9.5-13.4 4.4-4.9 6.1-5.2 7.4-5.1 1 .1 1.2 1.1 1.2 1.1s-.1.2-.2.5c-1.7 2.7-9 15.3-12 19.3zM55.7 106.9c-7.8-2-20.7 11.2-26.1 22-3.4 6.6-4.8 15 1.1 17.2 6 2.2 16.1-8.7 18.5-11.9 2.4-3.2 6.3-9.5 6.3-9.5s1.2-.2 2-.4 2.1-.5 2.1-.5-1.5 2.6-2.8 5.3c-1.6 3.2-5.8 13.8 2.4 16.9 7.9 3 19.1-9.6 19.7-9.9 0 0-3.3 8.6 1.8 9.9 5.7 1.5 11.9-5.8 11.9-5.8s-1.3 5.5 3.1 6c7.9.9 22-19.4 22-19.4h-2.8s-7.1 9.2-10.6 11.1c-3.4 1.9-2.2-1.5-1.3-3 1.2-1.9 16.4-27.3 16.4-27.3h-8l-.9 1.5s-1.7-2.5-4.4-2.4c-8.1.5-17.7 13.4-21.9 19.1-4.2 5.7-13.3 16.5-18.1 14.6-5.2-2.1 0-11.8 3.4-17.4 3.7-6.2 10.4-12.3 13-12.3 3.2-.1 2 2.9 2 2.9s-2.4-.3-4.2 1.9c-1.2 1.6-2.3 3.8-1.1 5.1 1.9 2 4.4 0 5.8-2.3 4.6-7 1.2-10.8-2.4-11.3-7.7-1.2-14.8 8.7-20.2 12.4-3.7 2.6-5.3 2.4-5.3 2.4s6.4-12.9-1.4-14.9zm34.9 22.8c2.3-4.3 5.5-8.4 9.6-13.5 4.1-5.2 6.2-5.6 7.4-5.5 1 .1 1.2 1.1 1.2 1.1s-9 15.6-12.2 20.1c-1.1 1.5-2 2.7-2.8 3.6-1.7 2-3 2.9-3.9 3.2-.5.1-1.1.1-1.5-.2-1.5-.8-.4-4.1 2.2-8.8zm-38.1-5c-.1.2-2.7 4.5-4.8 7.2-2.3 3-6.6 7.5-9.2 6.5-4-1.5.3-10.1 3.1-14.3 2.9-4.2 3.3-4.8 3.4-4.9.1-.1.2-.2.2-.1.1.1 1 2 3 3.3 2 1.3 4 1.8 4.2 1.9.1 0 .2.1.1.4zm3.3-6.6c-.7 1.9-1.4 3.2-1.5 3.5-.2.5-.8.3-.8.3-.6 0-5.5-1.1-5.5-5.1 0-3.8 5.4-7.6 7.5-6 2 1.5 1.1 5.3.3 7.3zm96.9 8c-4 .3-11.1 3.9-15 11.8-3.9 7.8-3.9 12.7-3.9 12.7s2-2.2 5.2-4.6c3.1-2.3 5.4-3.2 5.4-3.2s.6-2.9 2-5.9c1.4-2.9 3.6-6 6.4-6.7 5.6-1.4 2.9 8.8-1.2 15.4-2.2 3.6-10 13.8-16.7 13.8-6.7 0-8-6.5-6.6-12.5 1.4-6.1 3.4-13.8 13.2-27.7 9.8-14 20.4-22.3 26.6-25.8 6.3-3.6 8.9-2 8.9-2s-8.1 5-12.6 10.9c-4.4 5.7-7 12.1-5 15.3 1.9 3 8.8 3.1 16.3-7.8 7.4-10.7 5.6-17.1 5.6-17.1s.9-.3 1.5-.4c3.6-.5 6.5.5 11 2.8 4.7 2.4 9.2 6.3 15.4 9.4 1.9-2 3.9-4.2 6.1-6.3-8.3-4.1-14.7-9.8-22.8-10.4-7.1-.5-12.7 2.1-12.7 2.1s-2.2-3-8.9-2-27.3 9.6-44.9 37.7c-15.9 25.4-8.4 40 3 39.8 12.4-.2 24.1-13.9 28.1-25.3 3.9-11.2-.8-14.3-4.4-14zm24.2-23.6c-2.1 5.1-5.1 8.6-8.1 11.3-3.9 3.5-6 3.4-6.9 2.7-2.4-1.8.8-8.7 6.4-14.9 5.6-6.1 10.3-8 10.3-8 0 .1.8 2.9-1.7 8.9z"/>
</svg>
