<svg xmlns="http://www.w3.org/2000/svg" viewBox="0 0 255 255"><path d="M121.884 241.5l2.558-49.039a5.396 5.396 0 00-6.307-5.567l-48.812 8.579 6.592-18.185a3.687 3.687 0 00-1.137-4.146L21.307 129.84l12.047-5.626a3.693 3.693 0 001.932-4.488l-10.57-32.504 30.798 6.534a3.693 3.693 0 004.148-2.158l5.967-14.034 24.037 25.799a3.694 3.694 0 006.306-3.24L84.38 40.344l18.582 10.74a3.695 3.695 0 005.171-1.534l18.865-37.05 18.865 37.049a3.696 3.696 0 005.173 1.534l18.58-10.739-11.593 59.778a3.696 3.696 0 006.31 3.237l24.037-25.798 5.968 14.034a3.688 3.688 0 004.146 2.158l30.799-6.534-10.57 32.503a3.695 3.695 0 001.932 4.49l12.049 5.626-53.475 43.302a3.691 3.691 0 00-1.137 4.146l6.592 18.186-48.812-8.581a5.4 5.4 0 00-6.234 4.404 5.214 5.214 0 00-.07 1.164l2.555 49.038-10.229.003z"/></svg>