<svg xmlns="http://www.w3.org/2000/svg" viewBox="0 0 255 255">
	<path fill="#FFF" d="M74.095 108.766l-.781-10.694 1.696-.515v-.666h-4.345l-3.547 9.493-3.773-9.495h-4.632v.666l1.696.515-.818 10.694-1.525.515v.668h4.459v-.667L61 108.766l.572-9.55 4.384 10.96 1.105-.19 4.08-10.789.457 9.567-1.525.517v.667h5.547v-.667l-1.525-.515zm14.362 0l-4.842-12.161-1.181.286-3.47 8.558-1.428 3.317-1.296.515v.667h4.593v-.667l-1.715-.515.857-2.421h4.785l.915 2.421-1.583.515v.667h5.681v-.667l-1.316-.515zm-8.101-3.507l1.982-5.242 2.001 5.242h-3.983zm19.63-8.368v.666l1.64.515.076 5.757v2.211l-7.109-9.151h-3.927v.669l1.696.514v5.015l-.076 5.68-1.621.515v.667h4.747v-.667l-1.64-.515-.076-5.757v-3.146l8.025 10.371 1.315-.249v-6.234l.076-5.68 1.544-.515v-.666h-4.67zm14.882 0v.666l1.639.515.077 5.757v2.211l-7.11-9.151h-3.928v.669l1.698.514v5.015l-.077 5.68-1.621.515v.667h4.746v-.667l-1.638-.515-.076-5.757v-3.146l8.024 10.371 1.315-.249v-6.234l.076-5.68 1.545-.515v-.666h-4.67zm5.58 13.056h5.91v-.667l-1.622-.515v-4.976h5.892v4.976l-1.621.515v.667h5.91v-.667l-1.697-.515V98.072l1.695-.515v-.666h-5.91v.666l1.622.515v4.671h-5.893v-4.671l1.622-.515v-.666h-5.91v.666l1.696.515v10.694l-1.696.515v.667h.002zm15.794 0h10.504v-3.869h-.974l-1.257 2.764-3.985.134v-5.263l1.965.076.8 2.059h.935v-4.974h-.935l-.877 1.905-1.887.096v-5.013l3.851.134 1.259 2.763h.972V96.89h-10.37v.666l1.696.515v10.694l-1.696.515v.667h-.001zm12.351 0h5.985v-.667l-1.696-.515V98.072l1.696-.515v-.666h-5.985v.666l1.696.515v10.694l-1.696.515v.666zm23.05-1.181l-.781-10.694 1.697-.515v-.666h-4.347l-3.546 9.493-3.772-9.493h-4.632v.666l1.696.515-.82 10.694-1.525.515v.667h4.461v-.667l-1.524-.515.571-9.55 4.384 10.96 1.106-.19 4.078-10.789.459 9.567-1.525.517v.667h5.547v-.667l-1.527-.515zm2.583 1.181h10.502v-3.869h-.972l-1.26 2.764-3.982.134v-5.263l1.964.076.802 2.059h.932v-4.974h-.932l-.879 1.905-1.887.096v-5.013l3.851.134 1.258 2.763h.973V96.89h-10.369v.666l1.695.515v10.694l-1.695.515v.667h-.001zm23.54-1.125c-.706-.706-2.708-3.946-3.28-4.842 1.679-.571 2.916-1.887 2.916-3.66 0-2.554-2.116-3.43-4.765-3.43h-6.062v.666l1.696.515v10.694l-1.696.515v.667h5.909v-.667l-1.621-.515v-4.5l1.202.058c1.81 3.355 2.82 5.032 3.374 5.623h3.545v-.667l-1.218-.457zm-5.739-5.508l-1.164.076v-5.45a5.91 5.91 0 011.336-.171c1.41 0 2.4.686 2.4 2.783 0 1.735-1.03 2.669-2.572 2.765v-.003zM46.635 154.123l-2.273-31.107 4.936-1.499v-1.94H36.654l-10.315 27.616-10.979-27.616H1.885v1.94l4.936 1.499-2.384 31.107L0 155.621v1.939h12.975v-1.939l-4.435-1.498 1.662-27.78 12.755 31.884 3.215-.555 11.868-31.385 1.33 27.836-4.437 1.498v1.939H51.07v-1.939l-4.435-1.498zm27.584 4.27c11.812 0 20.849-7.318 20.849-20.295 0-12.033-7.486-19.352-19.852-19.352-11.7 0-20.961 7.597-20.961 20.184 0 12.588 7.375 19.463 19.964 19.463zm.72-2.827c-6.931 0-11.978-6.877-11.978-17.967 0-9.537 4.326-16.026 11.591-16.026 7.042 0 11.81 6.655 11.81 17.522 0 9.482-3.77 16.469-11.423 16.469v.002zm56.675-1.277c-2.051-2.051-7.874-11.479-9.537-14.084 4.88-1.664 8.483-5.488 8.483-10.646 0-7.431-6.155-9.981-13.862-9.981H99.066v1.94l4.934 1.499v31.107l-4.936 1.498v1.939h17.192v-1.939l-4.714-1.498v-13.086l3.494.166c5.268 9.762 8.208 14.641 9.814 16.357h10.314v-1.939l-3.549-1.332h-.001v-.001zm-16.691-16.025l-3.382.223v-15.862a17.277 17.277 0 013.882-.496c4.104 0 6.987 1.997 6.987 8.096 0 5.047-2.995 7.764-7.486 8.041l-.001-.002zm45.464 1.386v1.885l4.771 1.553v11.146c-1.831.664-3.827 1.055-6.266 1.055-7.044 0-12.644-5.381-12.644-16.859 0-12.752 6.985-16.856 13.031-16.856 2.716 0 4.712.499 6.542 1.275l4.159 8.206h2.495v-9.591a30.04 30.04 0 00-12.643-2.717c-13.199 0-22.291 7.984-22.291 20.185 0 13.363 8.982 19.463 19.185 19.463 7.044 0 12.698-2.328 15.971-4.602V143.09l3.716-1.496v-1.941h-16.026v-.003zm19.147 17.911h30.554v-11.256h-2.827l-3.66 8.041-11.59.387V139.43l5.712.221 2.329 5.99h2.717v-14.475h-2.717l-2.551 5.545-5.49.277v-14.584l11.201.387 3.66 8.041h2.828v-11.256h-30.166v1.94l4.936 1.499v31.107l-4.936 1.498v1.941zm61.881-37.984v1.94l4.77 1.499.221 16.746v6.432l-20.684-26.616h-11.423v1.94l4.936 1.499v14.582l-.222 16.525-4.714 1.498v1.939h13.806v-1.939l-4.769-1.498-.221-16.746v-9.15l23.345 30.166 3.825-.719V139.54l.223-16.523 4.492-1.499v-1.94h-13.585v-.001z"/>
</svg>
