<svg xmlns="http://www.w3.org/2000/svg" x="0px" y="0px" viewBox="0 0 255 255">
	<path fill="#FFF" d="M37.303 91.846h-.127l-2.977-12.092c-.254-1.013-.379-1.202-1.393-1.202H25.59l-8.231 38.998c-.127.695-.127.887.57 1.267l5.127 2.976v.127H3.746v-.127l6.396-2.976c.759-.38.949-.571 1.076-1.267l8.23-38.998H12.23c-1.012 0-1.139.062-1.898 1.202L2.291 91.846h-.126l3.038-14.433H40.34l-3.037 14.433zm27.418 11.016l-3.039 9.625c-.568 1.771-1.013 3.415-1.013 4.492 0 1.266.57 1.899 1.584 1.899 1.075 0 2.151-.694 3.228-2.277 1.646-2.47 2.533-6.079 2.976-8.548h.128c-.823 9.308-5.699 14.371-10.067 14.371-2.152 0-3.863-1.203-3.863-4.115 0-1.898.762-4.303 1.521-6.646l3.229-10.067c.695-2.152 1.202-4.241 1.202-5.443 0-1.394-.886-2.217-2.152-2.217-2.911 0-5.634 2.596-7.534 5.951-1.835 3.229-4.306 9.687-7.091 22.032h-5.57l10.003-41.09c.253-1.013.189-1.14-.569-1.392l-5.572-1.962v-.127l12.915-1.013-6.9 27.855h.127c3.103-8.674 8.04-13.611 13.105-13.611 3.102 0 5.064 1.963 5.064 4.875-.002 2.027-1.014 5.194-1.712 7.408m6.525 7.786c0-9.876 7.851-20.068 17.221-20.068 4.495 0 7.661 2.596 7.661 6.077 0 6.332-8.61 10.447-15.893 10.447-.886 0-1.834-.064-2.659-.19a19.927 19.927 0 00-.251 3.292c0 4.938 2.024 8.42 6.456 8.42 3.99 0 8.864-3.354 10.447-11.08h.126c-1.52 11.523-7.723 14.879-12.914 14.879-5.445 0-10.194-3.988-10.194-11.777m16.461-19.119c-4.432 0-8.801 7.725-10.066 14.814.38.063.823.063 1.204.063 6.457 0 11.332-4.431 11.332-10.763 0-2.721-.823-4.114-2.47-4.114m-71.93 72.464v15.01H3.303v-44.832h18.616c5.403 0 9.529 1.357 12.38 4.083 2.85 2.722 4.273 6.36 4.273 10.923 0 2.828-.633 5.359-1.899 7.599-1.268 2.235-3.156 3.999-5.667 5.287-2.513 1.286-5.541 1.931-9.087 1.931h-6.142zm10.194-14.816c0-3.291-1.815-4.939-5.444-4.939h-4.749v9.94h4.749c3.628 0 5.444-1.667 5.444-5.001m16.842-5.699h12.475v35.525H42.813zm46.32 1.74c2.808 1.457 5.013 3.566 6.618 6.334 1.603 2.765 2.405 5.982 2.405 9.656 0 3.713-.803 6.943-2.405 9.688-1.605 2.743-3.811 4.854-6.618 6.329-2.807 1.479-5.982 2.219-9.529 2.219-3.546 0-6.733-.74-9.562-2.219-2.829-1.475-5.044-3.586-6.648-6.329-1.604-2.745-2.406-5.976-2.406-9.688 0-3.716.802-6.945 2.406-9.689 1.604-2.745 3.819-4.844 6.648-6.301 2.828-1.457 6.016-2.186 9.562-2.186 3.546 0 6.722.729 9.529 2.186m-13.835 10.478c-1.141 1.27-1.709 3.105-1.709 5.512 0 2.447.568 4.305 1.709 5.572 1.14 1.268 2.575 1.898 4.306 1.898 1.688 0 3.104-.643 4.242-1.931 1.141-1.288 1.71-3.138 1.71-5.54 0-2.406-.569-4.242-1.71-5.512-1.139-1.268-2.554-1.898-4.242-1.898-1.731.001-3.166.632-4.306 1.899m61.865-8.452c2.321 2.724 3.481 6.429 3.481 11.112v20.646h-12.348V159.94c0-2.068-.538-3.684-1.615-4.846-1.076-1.158-2.521-1.738-4.336-1.738-1.859 0-3.336.6-4.434 1.803-1.099 1.205-1.645 2.859-1.645 4.971v18.873h-12.475v-35.525h12.475v5.951c1.013-1.898 2.489-3.418 4.431-4.559 1.941-1.139 4.222-1.711 6.84-1.711 4.095 0 7.301 1.362 9.626 4.085m44.577 16.243h-23.492c.211 4.01 1.961 6.016 5.257 6.016 1.222 0 2.237-.295 3.039-.887a4.452 4.452 0 001.646-2.344h13.17c-.463 2.491-1.497 4.738-3.104 6.746-1.604 2.002-3.63 3.574-6.08 4.715-2.448 1.139-5.125 1.711-8.04 1.711-3.545 0-6.681-.729-9.404-2.188-2.721-1.455-4.844-3.564-6.363-6.33-1.521-2.762-2.278-6.006-2.278-9.719 0-3.716.757-6.945 2.278-9.689 1.52-2.745 3.651-4.844 6.396-6.301 2.745-1.457 5.867-2.186 9.372-2.186 3.546 0 6.67.719 9.371 2.154 2.701 1.438 4.801 3.482 6.302 6.143 1.497 2.66 2.246 5.74 2.246 9.244 0 .89-.105 1.86-.316 2.915m-13.803-9.309c-1.013-.931-2.28-1.393-3.8-1.393-1.646 0-2.986.462-4.021 1.393-1.033.928-1.635 2.3-1.804 4.116h11.082c.04-1.816-.447-3.189-1.457-4.116m53.568 9.309h-23.49c.209 4.01 1.96 6.016 5.253 6.016 1.225 0 2.237-.295 3.039-.887a4.429 4.429 0 001.648-2.344h13.17c-.465 2.491-1.499 4.738-3.104 6.746-1.604 2.002-3.632 3.574-6.078 4.715-2.448 1.139-5.129 1.711-8.042 1.711-3.545 0-6.681-.729-9.403-2.188-2.722-1.455-4.844-3.564-6.362-6.33-1.521-2.762-2.28-6.006-2.28-9.719 0-3.716.76-6.945 2.28-9.689 1.519-2.745 3.649-4.844 6.394-6.301 2.743-1.457 5.867-2.186 9.372-2.186 3.546 0 6.669.719 9.373 2.154 2.7 1.438 4.801 3.482 6.3 6.143 1.498 2.66 2.248 5.74 2.248 9.244-.001.89-.107 1.86-.318 2.915m-13.804-9.309c-1.013-.931-2.279-1.393-3.8-1.393-1.646 0-2.986.462-4.021 1.393-1.037.928-1.638 2.3-1.803 4.116h11.08c.042-1.816-.442-3.189-1.456-4.116m37.486-9.118c2.111-1.266 4.349-1.9 6.714-1.9v13.299h-3.61c-2.785 0-4.876.537-6.271 1.614-1.393 1.077-2.088 2.942-2.088 5.603v15.326h-12.475v-35.525h12.475v6.652c1.392-2.112 3.143-3.804 5.255-5.069"/>
</svg>
