<svg xmlns="http://www.w3.org/2000/svg" width="64" height="64"><path d="M35.732 62.785c-1.727 0-3.21-.407-4.449-1.221S29.05 59.672 28.3 58.33c-.75-1.34-1.239-2.898-1.464-4.67-.225-1.772-.15-3.664.225-5.676.225-1.341.6-3.137 1.126-5.389a400.65 400.65 0 0 0 1.633-7.328 294.055 294.055 0 0 0 1.577-7.904c.488-2.634.807-5.03.957-7.185.15-2.156.075-3.928-.225-5.317-.3-1.389-.938-2.084-1.914-2.084-1.202 0-2.44.503-3.717 1.51-1.276 1.005-2.571 2.37-3.885 4.095-1.314 1.724-2.628 3.712-3.942 5.963a206.42 206.42 0 0 0-3.886 6.97 398.639 398.639 0 0 0-1.689 8.55 556.67 556.67 0 0 0-1.182 6.61 182.635 182.635 0 0 1-.958 5.173 130.53 130.53 0 0 0-.788 4.24c-.225.957-.901 1.891-2.027 2.802a16.5 16.5 0 0 1-3.604 2.227c-1.277.575-2.384.862-3.322.862-.939 0-1.333-.43-1.183-1.293.075-.575.32-1.868.732-3.88.413-2.012.901-4.383 1.464-7.113a896.84 896.84 0 0 0 1.746-8.694 1372.838 1372.838 0 0 0 1.69-8.766A3163.906 3163.906 0 0 0 6.9 24.705c.375-2.3.845-4.982 1.408-8.048.563-3.065 1.22-6.418 1.97-10.059.526-.574 1.07-1.03 1.634-1.365a8.384 8.384 0 0 1 1.745-.79 6.532 6.532 0 0 1 1.915-.575c.6 0 1.201.048 1.802.144.525.096 1.07.263 1.633.503s1.07.598 1.52 1.077c-.225.671-.488 1.605-.788 2.803-.3 1.197-.6 2.466-.901 3.808a63.859 63.859 0 0 1-1.126 4.742 65.41 65.41 0 0 1 3.322-5.245 34.064 34.064 0 0 1 4.054-4.814c1.464-1.437 3.022-2.61 4.674-3.52C31.415 2.454 33.104 2 34.831 2c1.427 0 2.703.527 3.83 1.58 1.125 1.055 2.008 2.515 2.646 4.384.638 1.868 1.013 4.095 1.126 6.682.113 2.586-.169 5.412-.845 8.478l-1.239 6.323a389.522 389.522 0 0 1-1.407 7.113 206.49 206.49 0 0 1-2.084 8.981c-.45 2.108-.62 3.928-.506 5.46.112 1.534.844 2.3 2.196 2.3 1.351 0 3.06-1.054 5.124-3.161 2.065-2.108 4.148-4.647 6.25-7.616a148.39 148.39 0 0 0 5.97-9.125c1.876-3.114 3.303-5.629 4.279-7.545.676-1.245 1.314-2.06 1.914-2.443.601-.383 1.07-.43 1.408-.143.338.287.507.934.507 1.94 0 1.006-.3 2.275-.901 3.808-.525 1.34-1.333 3.113-2.421 5.317-1.089 2.203-2.384 4.55-3.886 7.04a163.625 163.625 0 0 1-4.843 7.545c-1.726 2.539-3.528 4.838-5.405 6.898-1.877 2.06-3.736 3.736-5.575 5.03-1.84 1.293-3.585 1.94-5.237 1.94z"/></svg>